<svg width="65" height="42" viewBox="0 0 65 42" fill="none" xmlns="http://www.w3.org/2000/svg">
<path d="M65 19.6329C65 14.4259 62.9385 9.43225 59.269 5.75036C55.5995 2.06848 50.6226 0 45.4331 0H8.58226C6.30749 0.00144276 4.1262 0.908427 2.51718 2.52185C0.908167 4.13527 0.002879 6.32333 0 8.60577V30.5292C0.00143938 32.289 0.698775 33.9763 1.93896 35.2206C3.17914 36.465 4.86083 37.1648 6.61471 37.1662H8.24528C8.44182 38.5094 9.11329 39.7367 10.1371 40.6242C11.161 41.5117 12.4689 42 13.8218 42C15.1748 42 16.4826 41.5117 17.5065 40.6242C18.5303 39.7367 19.2018 38.5094 19.3983 37.1662H45.2266C45.4243 38.5125 46.0992 39.7422 47.1275 40.6296C48.1558 41.517 49.4684 42.0026 50.8247 41.9973C52.181 41.992 53.4899 41.4961 54.5113 40.6007C55.5326 39.7053 56.1979 38.4704 56.3852 37.1225C58.6273 36.91 60.7208 35.9039 62.2913 34.2842C63.8617 32.6645 64.8065 30.537 64.9565 28.2823C64.9645 28.2116 64.9645 28.1403 64.9565 28.0696C64.9594 28.0242 64.9594 27.9787 64.9565 27.9333C64.9565 27.8406 64.9565 27.7533 64.9565 27.6606L65 19.6329ZM8.58226 1.63608H45.4331C50.1901 1.63608 54.7523 3.53216 58.116 6.90722C61.4798 10.2823 63.3694 14.8599 63.3694 19.6329V27.2679H1.63057V8.60577C1.63345 6.75724 2.36696 4.98531 3.67018 3.67871C4.9734 2.37211 6.73995 1.63752 8.58226 1.63608ZM56.3852 35.4811C56.1829 34.1401 55.5067 32.9168 54.48 32.0347C53.4533 31.1526 52.1446 30.6705 50.7929 30.6765C49.4413 30.6824 48.1368 31.176 47.1179 32.0671C46.0989 32.9583 45.4334 34.1874 45.2429 35.5301H19.4147C19.2181 34.187 18.5466 32.9596 17.5228 32.0721C16.499 31.1846 15.1911 30.6963 13.8381 30.6963C12.4851 30.6963 11.1773 31.1846 10.1535 32.0721C9.12961 32.9596 8.45808 34.187 8.26154 35.5301H6.63096C5.30954 35.5287 4.04267 35.0014 3.10828 34.0638C2.17389 33.1263 1.64833 31.8551 1.64689 30.5292V28.8931H63.2825C63.0115 30.598 62.1896 32.1662 60.9433 33.3565C59.6971 34.5469 58.0956 35.2934 56.3852 35.4811Z" fill="currentColor"/>
<path d="M46.993 21.8851H55.7275C56.5439 21.8837 57.3264 21.5573 57.9031 20.9775C58.4799 20.3978 58.8038 19.6121 58.8038 18.793C58.8009 15.6514 57.5555 12.6393 55.341 10.4184C53.1266 8.19746 50.1241 6.9492 46.993 6.94775C46.1776 6.9492 45.396 7.27487 44.8193 7.85343C44.2427 8.432 43.9182 9.21629 43.9167 10.0345V18.793C43.9167 19.6121 44.2407 20.3978 44.8174 20.9775C45.3942 21.5573 46.1766 21.8837 46.993 21.8851ZM45.5473 10.0236C45.5488 9.63929 45.7015 9.27115 45.9723 8.99941C46.2432 8.72767 46.61 8.57438 46.993 8.57295C49.6912 8.57583 52.2781 9.65216 54.1864 11.566C56.0948 13.4798 57.1689 16.0748 57.1732 18.782C57.1732 19.1673 57.0211 19.5368 56.7501 19.8097C56.4792 20.0827 56.1115 20.2367 55.7275 20.2381H46.993C46.6091 20.2367 46.2414 20.0827 45.9704 19.8097C45.6994 19.5368 45.5473 19.1673 45.5473 18.782V10.0236Z" fill="currentColor"/>
<path d="M29.084 21.8851H35.3943C36.462 21.8837 37.4855 21.4575 38.2405 20.6999C38.9955 19.9424 39.4204 18.9154 39.4218 17.844V10.9834C39.4189 9.91304 38.9935 8.8874 38.2387 8.13104C37.4838 7.37468 36.461 6.94919 35.3943 6.94775H29.1003C28.0331 6.94775 27.0094 7.37277 26.2543 8.12944C25.4991 8.88612 25.0742 9.9126 25.0728 10.9834V17.844C25.0727 18.913 25.4948 19.9384 26.2466 20.6958C26.9984 21.4531 28.0186 21.8808 29.084 21.8851ZM26.687 10.978C26.6884 10.3411 26.9416 9.73072 27.391 9.28087C27.8403 8.83102 28.4492 8.57837 29.084 8.57837H35.3943C36.029 8.57837 36.6379 8.83102 37.0873 9.28087C37.5366 9.73072 37.7898 10.3411 37.7912 10.978V17.8386C37.7898 18.476 37.5368 19.0869 37.0876 19.5376C36.6384 19.9883 36.0295 20.2422 35.3943 20.2436H29.1003C28.465 20.2422 27.8562 19.9883 27.4069 19.5376C26.9577 19.0869 26.7048 18.476 26.7033 17.8386L26.687 10.978Z" fill="currentColor"/>
<path d="M10.566 21.8851H16.8655C17.9327 21.8837 18.9557 21.4573 19.7098 20.6996C20.4639 19.9419 20.8876 18.9149 20.8875 17.844V10.9834C20.8861 9.91354 20.4619 8.88789 19.7079 8.13137C18.9539 7.37485 17.9317 6.9492 16.8655 6.94775H10.566C9.49969 6.9492 8.47752 7.37485 7.72355 8.13137C6.96957 8.88789 6.54538 9.91354 6.54395 10.9834V17.844C6.54394 18.9149 6.96749 19.9419 7.72162 20.6996C8.47575 21.4573 9.49875 21.8837 10.566 21.8851ZM8.17452 10.978C8.17452 10.3416 8.42646 9.73121 8.87495 9.28121C9.32345 8.8312 9.9317 8.57837 10.566 8.57837H16.8655C17.4993 8.57981 18.1067 8.83311 18.5549 9.2828C19.0031 9.7325 19.2555 10.342 19.257 10.978V17.8386C19.2555 18.4751 19.0032 19.0851 18.5552 19.5357C18.1072 19.9862 17.4998 20.2407 16.8655 20.2436H10.566C9.9312 20.2422 9.32296 19.9881 8.87462 19.5373C8.42628 19.0864 8.17452 18.4755 8.17452 17.8386V10.978Z" fill="currentColor"/>
</svg>
