<svg width="71" height="79" viewBox="0 0 71 79" fill="none" xmlns="http://www.w3.org/2000/svg">
<path d="M56.785 29.5748V24.6624C56.785 21.423 56.1469 18.2153 54.9073 15.2226C53.6676 12.2299 51.8507 9.51073 49.5602 7.22051C47.2697 4.93029 44.5506 3.11384 41.5581 1.87493C38.5657 0.636018 35.3585 -0.0010978 32.1198 1.41995e-06H19.6283C14.4226 1.41995e-06 9.43003 2.06846 5.74901 5.75033C2.06798 9.4322 0 14.4259 0 19.6329V58.0282C0 63.5903 2.20902 68.9245 6.14109 72.8575C10.0732 76.7905 15.4062 79 20.967 79H48.8533C51.7616 79 54.6415 78.427 57.3285 77.3138C60.0154 76.2006 62.4569 74.5689 64.5134 72.5119C66.5699 70.4549 68.2012 68.0129 69.3142 65.3253C70.4271 62.6377 71 59.7572 71 56.8482V53.2664C70.9996 49.4337 69.9508 45.6742 67.9672 42.395C65.9836 39.1157 63.1408 36.4419 59.7468 34.663C58.838 34.1634 58.0822 33.426 57.5605 32.5297C57.0387 31.6333 56.7706 30.6119 56.785 29.5748V29.5748Z" fill="#2FC3B1"/>
<path d="M44.1846 58.2624C43.7631 58.259 43.3481 58.1587 42.9714 57.9695L30.2624 51.5089C29.3136 51.0325 28.5165 50.3007 27.9607 49.3959C27.405 48.4911 27.1126 47.4492 27.1165 46.3873V22.0262C27.0961 21.6613 27.1503 21.2962 27.2759 20.9531C27.4014 20.6099 27.5957 20.296 27.8467 20.0305C28.0977 19.7651 28.4002 19.5535 28.7357 19.409C29.0712 19.2645 29.4327 19.1899 29.798 19.1899C30.1633 19.1899 30.5248 19.2645 30.8603 19.409C31.1958 19.5535 31.4984 19.7651 31.7494 20.0305C32.0004 20.296 32.1946 20.6099 32.3201 20.9531C32.4457 21.2962 32.4999 21.6613 32.4795 22.0262V46.3873C32.48 46.457 32.4998 46.5252 32.5368 46.5843C32.5737 46.6434 32.6263 46.6911 32.6887 46.722L45.4061 53.1826C45.9438 53.4567 46.3735 53.9039 46.6259 54.452C46.8784 55.0002 46.939 55.6175 46.7979 56.2043C46.6568 56.7911 46.3222 57.3133 45.8481 57.6867C45.374 58.06 44.788 58.2629 44.1846 58.2624Z" fill="#1E373F"/>
</svg>
