<svg width="52" height="20" viewBox="0 0 52 20" fill="none" xmlns="http://www.w3.org/2000/svg">
<path d="M1.208 19H3.392V5.968H1.208V19ZM2.312 3.28C3.176 3.28 3.776 2.704 3.776 1.816C3.776 0.975999 3.176 0.399999 2.312 0.399999C1.448 0.399999 0.848 0.975999 0.848 1.816C0.848 2.704 1.448 3.28 2.312 3.28ZM8.00938 19H13.6254C17.5614 19 20.2974 17.296 20.2974 13.84C20.2974 11.44 18.8094 10.048 16.7214 9.64V9.52C18.3534 8.992 19.2894 7.456 19.2894 5.704C19.2894 2.608 16.8174 1.384 13.2414 1.384H8.00938V19ZM10.2414 8.896V3.16H12.9534C15.6894 3.16 17.1054 3.928 17.1054 5.992C17.1054 7.768 15.8814 8.896 12.8574 8.896H10.2414ZM10.2414 17.224V10.576H13.3134C16.3854 10.576 18.1134 11.584 18.1134 13.768C18.1134 16.144 16.3374 17.224 13.3134 17.224H10.2414ZM30.0228 19.312C33.6228 19.312 36.3588 17.392 36.3588 11.728V1.384H34.2228V11.8C34.2228 16.048 32.3748 17.368 30.0228 17.368C27.7428 17.368 25.9428 16.048 25.9428 11.8V1.384H23.7108V11.728C23.7108 17.392 26.4468 19.312 30.0228 19.312ZM45.7179 19.312C49.3899 19.312 51.6939 17.104 51.6939 14.32C51.6939 11.704 50.1099 10.504 48.0699 9.616L45.5499 8.536C44.1819 7.96 42.6459 7.312 42.6459 5.608C42.6459 4.024 43.9419 3.016 45.9339 3.016C47.5659 3.016 48.8619 3.664 49.9419 4.672L51.1179 3.256C49.8699 1.96 48.0219 1.072 45.9339 1.072C42.7419 1.072 40.3899 3.04 40.3899 5.752C40.3899 8.32 42.3339 9.568 43.9659 10.264L46.5099 11.368C48.1659 12.112 49.4379 12.688 49.4379 14.488C49.4379 16.216 48.0459 17.368 45.7419 17.368C43.9179 17.368 42.1419 16.504 40.8939 15.184L39.5499 16.696C41.0859 18.304 43.2219 19.312 45.7179 19.312Z" fill="#777631"/>
</svg>

