<svg width="30" height="26" viewBox="0 0 30 26" fill="none" xmlns="http://www.w3.org/2000/svg">
<g clip-path="url(#clip0_19_3073)">
<path d="M13.7001 25.8501C13.3365 25.8617 12.9812 25.7409 12.7001 25.5101L1.63 16.4501C1.10557 16.0244 0.682776 15.4871 0.392334 14.8773C0.101892 14.2675 -0.0488281 13.6006 -0.0488281 12.9251C-0.0488281 12.2497 0.101892 11.5827 0.392334 10.9729C0.682776 10.3631 1.10557 9.82575 1.63 9.40008L12.7001 0.400084C12.8515 0.268493 13.0279 0.168666 13.2186 0.106444C13.4094 0.0442219 13.6107 0.0208718 13.8107 0.0378403C14.0106 0.0548087 14.205 0.111718 14.3826 0.205199C14.5601 0.298679 14.7171 0.426855 14.8442 0.582091C14.9714 0.737327 15.0662 0.916458 15.1228 1.10895C15.1795 1.30143 15.1968 1.50334 15.1741 1.7027C15.1513 1.90205 15.0887 2.09484 14.9901 2.26959C14.8915 2.44435 14.759 2.59752 14.6001 2.72009L3.53003 11.7701C3.34995 11.9164 3.20454 12.1008 3.10425 12.31C3.00396 12.5192 2.95134 12.7481 2.95007 12.9801C2.94997 13.2109 3.0021 13.4387 3.10254 13.6465C3.20298 13.8544 3.3491 14.0368 3.53003 14.1801L14.6001 23.2401C14.8392 23.4361 15.0119 23.7012 15.0945 23.9992C15.1771 24.2972 15.1656 24.6134 15.0616 24.9046C14.9576 25.1958 14.7662 25.4477 14.5135 25.6259C14.2609 25.8041 13.9592 25.8999 13.65 25.9001L13.7001 25.8501Z" fill="currentColor"/>
<path d="M28.05 14.4199H9.6001C9.20227 14.4199 8.82073 14.2619 8.53943 13.9806C8.25812 13.6993 8.1001 13.3177 8.1001 12.9199C8.1001 12.5221 8.25812 12.1406 8.53943 11.8593C8.82073 11.5779 9.20227 11.4199 9.6001 11.4199H28.05C28.4479 11.4199 28.8294 11.5779 29.1107 11.8593C29.392 12.1406 29.55 12.5221 29.55 12.9199C29.55 13.3177 29.392 13.6993 29.1107 13.9806C28.8294 14.2619 28.4479 14.4199 28.05 14.4199Z" fill="currentColor"/>
</g>
<defs>
<clipPath id="clip0_19_3073">
<rect width="29.55" height="25.84" fill="white"/>
</clipPath>
</defs>
</svg>
