<svg viewBox="0 0 47 51" fill="none" xmlns="http://www.w3.org/2000/svg">
<path d="M29.4032 1.07025e-05H17.5575C12.9025 0.00507353 8.43976 1.80783 5.14822 5.01279C1.85669 8.21774 0.00519959 12.5632 0 17.0956V33.6844C0.00430736 35.9358 0.711117 38.1327 2.0267 39.9841C3.34228 41.8356 5.20453 43.2541 7.36677 44.0517V48.0591C7.36806 48.8387 7.68669 49.5859 8.25284 50.1372C8.81899 50.6884 9.5865 50.9987 10.3872 51H10.7407C11.5414 50.9987 12.3089 50.6884 12.8751 50.1372C13.4412 49.5859 13.7598 48.8387 13.7611 48.0591V44.7595H33.2389V48.0495C33.2389 48.8286 33.5564 49.576 34.1218 50.1274C34.6871 50.6788 35.4541 50.9892 36.2543 50.9904H36.6129C37.4135 50.9892 38.181 50.6789 38.7472 50.1277C39.3133 49.5764 39.6319 48.8291 39.6332 48.0495V44.0422C41.7955 43.2445 43.6577 41.8261 44.9733 39.9746C46.2889 38.1232 46.9957 35.9262 47 33.6748V17.0956C46.9974 14.8481 46.5402 12.623 45.6545 10.5475C44.7687 8.47205 43.4719 6.58675 41.8379 4.99927C40.2039 3.4118 38.2647 2.15322 36.1312 1.29545C33.9977 0.43767 31.7115 -0.00250262 29.4032 1.07025e-05ZM12.2681 48.0639C12.2681 48.4634 12.1051 48.8464 11.815 49.1289C11.5249 49.4114 11.1314 49.5702 10.7211 49.5702H10.3921C9.98217 49.5689 9.58943 49.4098 9.29958 49.1276C9.00974 48.8454 8.84633 48.463 8.84503 48.0639V44.4869C9.68719 44.6776 10.549 44.7738 11.4136 44.7738H12.2927L12.2681 48.0639ZM38.1402 48.0639C38.1389 48.463 37.9755 48.8454 37.6857 49.1276C37.3958 49.4098 37.0031 49.5689 36.5932 49.5702H36.2347C35.8252 49.5689 35.433 49.4097 35.1439 49.1273C34.8549 48.845 34.6926 48.4625 34.6926 48.0639V44.7595H35.5717C36.4363 44.7592 37.298 44.6629 38.1402 44.4726V48.0639ZM45.507 33.6844C45.5031 36.2438 44.4572 38.6973 42.5985 40.5072C40.7398 42.317 38.2199 43.3354 35.5913 43.3392H11.3743C8.7453 43.3367 6.22473 42.3187 4.36574 40.5086C2.50676 38.6985 1.46127 36.2442 1.45867 33.6844V17.0956C1.46386 12.9436 3.16007 8.96313 6.1753 6.02721C9.19053 3.09129 13.2786 1.43967 17.5428 1.43461H29.3885C33.6527 1.43967 37.7407 3.09129 40.7559 6.02721C43.7712 8.96313 45.4674 12.9436 45.4726 17.0956L45.507 33.6844Z" fill="currentColor"/>
<path d="M36.4213 28.6536C35.7315 28.6526 35.0568 28.8509 34.4827 29.2234C33.9087 29.5959 33.461 30.1258 33.1963 30.7462C32.9316 31.3665 32.8618 32.0493 32.9958 32.7082C33.1298 33.3671 33.4616 33.9725 33.9491 34.4479C34.4365 34.9232 35.0578 35.247 35.7343 35.3784C36.4109 35.5098 37.1122 35.4428 37.7496 35.186C38.3871 34.9292 38.932 34.494 39.3153 33.9356C39.6987 33.3771 39.9033 32.7205 39.9033 32.0488C39.9033 31.1491 39.5367 30.2863 38.8838 29.6497C38.2309 29.0131 37.3453 28.6548 36.4213 28.6536Z" fill="currentColor"/>
<path d="M10.5443 28.6536C9.85468 28.6536 9.1805 28.8527 8.60708 29.2257C8.03365 29.5988 7.58673 30.1291 7.32281 30.7495C7.05889 31.3699 6.98983 32.0525 7.12437 32.7111C7.25892 33.3697 7.59101 33.9747 8.07867 34.4495C8.56633 34.9244 9.18761 35.2478 9.86401 35.3788C10.5404 35.5098 11.2416 35.4425 11.8787 35.1856C12.5159 34.9286 13.0604 34.4934 13.4436 33.9351C13.8267 33.3767 14.0313 32.7203 14.0313 32.0488C14.0313 31.1483 13.6639 30.2847 13.0099 29.648C12.356 29.0113 11.4691 28.6536 10.5443 28.6536Z" fill="currentColor"/>
<path d="M30.7489 7.32129H16.2069C13.7108 7.32382 11.3177 8.29045 9.55262 10.0091C7.78757 11.7277 6.79484 14.0579 6.79224 16.4884V22.3415C6.79354 23.2868 7.18009 24.193 7.86704 24.8609C8.55398 25.5289 9.48512 25.9041 10.456 25.9041H36.4852C37.4552 25.9028 38.3851 25.5271 39.0709 24.8592C39.7568 24.1914 40.1427 23.286 40.144 22.3415V16.4884C40.1414 14.0612 39.1514 11.7339 37.3906 10.0158C35.6298 8.29774 33.2416 7.32888 30.7489 7.32129ZM38.6903 22.3415C38.6903 22.621 38.6338 22.8977 38.5239 23.1559C38.4141 23.414 38.2532 23.6486 38.0502 23.8462C37.8473 24.0438 37.6063 24.2006 37.3412 24.3075C37.076 24.4145 36.7919 24.4695 36.5049 24.4695H19.3894L27.1441 17.1291C27.2809 16.994 27.3576 16.8119 27.3576 16.6222C27.3576 16.4325 27.2809 16.2505 27.1441 16.1154C27.0761 16.0483 26.995 15.995 26.9056 15.9587C26.8163 15.9223 26.7204 15.9036 26.6236 15.9036C26.5267 15.9036 26.4308 15.9223 26.3414 15.9587C26.2521 15.995 26.171 16.0483 26.103 16.1154L17.366 24.3882C17.3414 24.419 17.3185 24.4509 17.2973 24.4838H10.4216C9.84153 24.4838 9.28509 24.2598 8.87445 23.8609C8.46381 23.4619 8.23248 22.9207 8.23118 22.3559V16.4884C8.23378 14.4384 9.0713 12.473 10.56 11.0235C12.0488 9.57388 14.0672 8.75842 16.1726 8.75589H30.7146C32.8203 8.75715 34.8395 9.57223 36.3285 11.0221C37.8176 12.4719 38.6547 14.438 38.656 16.4884L38.6903 22.3415Z" fill="currentColor"/>
<path d="M28.0133 37.4574C23.0579 39.7288 18.299 37.5004 18.2204 37.4574C18.0473 37.3833 17.8516 37.3768 17.6737 37.4394C17.4959 37.5019 17.3496 37.6286 17.2651 37.7932C17.1805 37.9579 17.1642 38.1479 17.2195 38.3239C17.2748 38.5 17.3976 38.6486 17.5623 38.739C19.3404 39.5197 21.2695 39.9208 23.22 39.9153C25.0871 39.9188 26.9318 39.5204 28.6223 38.7485C28.71 38.7083 28.7887 38.6517 28.8539 38.5819C28.9192 38.5121 28.9696 38.4304 29.0025 38.3416C29.0353 38.2528 29.0499 38.1586 29.0453 38.0643C29.0408 37.97 29.0171 37.8775 28.9759 37.7921C28.9346 37.7067 28.8765 37.63 28.8048 37.5665C28.7331 37.503 28.6492 37.4538 28.558 37.4219C28.4668 37.3899 28.37 37.3757 28.2732 37.3802C28.1764 37.3846 28.0813 37.4076 27.9936 37.4478L28.0133 37.4574Z" fill="currentColor"/>
</svg>
