<svg width="54" height="61" viewBox="0 0 54 61" fill="none" xmlns="http://www.w3.org/2000/svg">
<path d="M43.0795 22.9619V19.2309C43.0795 16.7706 42.5975 14.3344 41.661 12.0615C40.7245 9.78852 39.3519 7.72334 37.6216 5.98393C35.8913 4.24452 33.8371 2.86494 31.5765 1.92399C29.3159 0.983051 26.8931 0.499166 24.4464 0.500001H15.0098C11.0772 0.500001 7.3056 2.07098 4.5248 4.86734C1.744 7.66369 0.181763 11.4564 0.181763 15.411V44.572C0.181763 48.7964 1.85055 52.8477 4.821 55.8348C7.79146 58.8219 11.8203 60.5 16.0211 60.5H37.0876C39.2847 60.5 41.4602 60.0648 43.4901 59.2193C45.5199 58.3739 47.3643 57.1346 48.9179 55.5723C50.4714 54.0101 51.7038 52.1554 52.5446 50.1142C53.3854 48.073 53.8181 45.8852 53.8181 43.6759V40.9555C53.8178 38.0446 53.0255 35.1892 51.527 32.6987C50.0285 30.2082 47.881 28.1774 45.317 26.8263C44.6304 26.4469 44.0595 25.8868 43.6653 25.2061C43.2712 24.5253 43.0687 23.7495 43.0795 22.9619V22.9619Z" fill="#AFECE4"/>
<path d="M33.5607 44.7505C33.2423 44.7479 32.9287 44.6717 32.6442 44.528L23.0433 39.6213C22.3265 39.2594 21.7243 38.7036 21.3045 38.0164C20.8847 37.3293 20.6638 36.5379 20.6667 35.7314V17.2293C20.6513 16.9522 20.6923 16.6749 20.7872 16.4143C20.882 16.1537 21.0287 15.9153 21.2183 15.7136C21.408 15.512 21.6365 15.3513 21.89 15.2416C22.1434 15.1318 22.4165 15.0752 22.6925 15.0752C22.9685 15.0752 23.2415 15.1318 23.495 15.2416C23.7484 15.3513 23.977 15.512 24.1666 15.7136C24.3562 15.9153 24.5029 16.1537 24.5978 16.4143C24.6926 16.6749 24.7336 16.9522 24.7182 17.2293V35.7314C24.7186 35.7844 24.7335 35.8361 24.7614 35.881C24.7893 35.9259 24.8291 35.9621 24.8762 35.9856L34.4835 40.8924C34.8896 41.1006 35.2143 41.4402 35.405 41.8565C35.5957 42.2729 35.6415 42.7417 35.5349 43.1873C35.4283 43.633 35.1755 44.0296 34.8174 44.3132C34.4592 44.5968 34.0165 44.7508 33.5607 44.7505Z" fill="#1E373F"/>
</svg>
