<svg viewBox="0 0 22 22" fill="none" xmlns="http://www.w3.org/2000/svg">
<g clip-path="url(#clip0_1237_3863)">
<path d="M10.9518 4.65138e-06C9.61039 0.00179918 8.32458 0.522035 7.37672 1.44645C6.42887 2.37086 5.89648 3.62386 5.89648 4.93028C5.89687 5.9164 6.20089 6.87976 6.76923 7.69587C7.33758 8.51198 8.14414 9.14335 9.08472 9.5084C9.34664 9.60683 9.57184 9.78016 9.73071 10.0056C9.88957 10.231 9.97466 10.498 9.97479 10.7714V16.7277C9.97479 16.9819 10.0785 17.2256 10.263 17.4053C10.4475 17.5851 10.6978 17.686 10.9587 17.686C11.2197 17.686 11.47 17.5851 11.6545 17.4053C11.839 17.2256 11.9427 16.9819 11.9427 16.7277V10.7714C11.9428 10.498 12.0279 10.231 12.1868 10.0056C12.3456 9.78016 12.5708 9.60683 12.8327 9.5084C13.7733 9.14335 14.5799 8.51198 15.1482 7.69587C15.7166 6.87976 16.0206 5.9164 16.021 4.93028C16.021 4.28226 15.8898 3.6406 15.635 3.04199C15.3801 2.44337 15.0066 1.89956 14.5358 1.44165C14.065 0.983745 13.5062 0.620736 12.8912 0.373365C12.2762 0.125994 11.6171 -0.000885491 10.9518 4.65138e-06Z" fill="#2FC3B1"/>
<path d="M19.3689 22H2.62805C2.28668 22.0001 1.95032 21.9201 1.64735 21.7669C1.34438 21.6137 1.08372 21.3918 0.887346 21.1198C0.690968 20.8479 0.564647 20.5339 0.519059 20.2044C0.47347 19.8749 0.509955 19.5396 0.625417 19.2268L2.87491 13.1316C3.02297 12.7297 3.29473 12.382 3.65312 12.1359C4.01151 11.8899 4.43909 11.7575 4.87756 11.7568H6.09097C6.22929 11.7568 6.36194 11.8104 6.45975 11.9056C6.55755 12.0009 6.61249 12.1301 6.61249 12.2648C6.61249 12.3995 6.55755 12.5287 6.45975 12.6239C6.36194 12.7192 6.22929 12.7727 6.09097 12.7727H4.87756C4.65387 12.773 4.43573 12.8405 4.25282 12.9659C4.06992 13.0914 3.93113 13.2686 3.85538 13.4736L1.60586 19.5688C1.54663 19.7284 1.5278 19.8997 1.55094 20.068C1.57409 20.2362 1.63854 20.3966 1.73883 20.5355C1.83912 20.6744 1.97232 20.7876 2.12711 20.8658C2.2819 20.9439 2.45372 20.9845 2.62805 20.9842H19.3689C19.5401 20.9855 19.7092 20.9474 19.8623 20.8729C20.0155 20.7984 20.1484 20.6897 20.2501 20.5556C20.3518 20.4215 20.4195 20.2659 20.4476 20.1014C20.4758 19.937 20.4636 19.7684 20.412 19.6094L18.4441 13.5143C18.3753 13.2978 18.2366 13.1088 18.0487 12.9752C17.8608 12.8416 17.6337 12.7706 17.4011 12.7727H16.1807C16.0424 12.7727 15.9097 12.7192 15.8119 12.6239C15.7141 12.5287 15.6592 12.3995 15.6592 12.2648C15.6592 12.1301 15.7141 12.0009 15.8119 11.9056C15.9097 11.8104 16.0424 11.7568 16.1807 11.7568H17.4011C17.8545 11.7558 18.2964 11.8963 18.6618 12.1577C19.0272 12.4192 19.297 12.7878 19.4315 13.2095L21.3994 19.3216C21.5001 19.6319 21.5241 19.961 21.4696 20.2821C21.4151 20.6032 21.2836 20.9072 21.0857 21.1695C20.8879 21.4318 20.6293 21.6449 20.331 21.7916C20.0327 21.9382 19.7031 22.0143 19.3689 22.0136V22Z" fill="#2FC3B1"/>
</g>
<defs>
<clipPath id="clip0_1237_3863">
<rect width="21" height="22" fill="white" transform="translate(0.5)"/>
</clipPath>
</defs>
</svg>