<svg viewBox="0 0 42 47" fill="none" xmlns="http://www.w3.org/2000/svg">
  <g clip-path="url(#clip0_38_9507)">
    <path d="M20.9026 9.93704e-06C18.2198 0.00384371 15.6482 1.11526 13.7525 3.09014C11.8568 5.06502 10.792 7.74189 10.792 10.5329C10.7928 12.6396 11.4008 14.6977 12.5375 16.4412C13.6742 18.1847 15.2873 19.5335 17.1685 20.3134C17.6923 20.5237 18.1427 20.894 18.4604 21.3756C18.7782 21.8572 18.9483 22.4276 18.9486 23.0117V35.7365C18.9486 36.2795 19.156 36.8002 19.525 37.1841C19.8941 37.5681 20.3946 37.7838 20.9165 37.7838C21.4384 37.7838 21.9389 37.5681 22.308 37.1841C22.677 36.8002 22.8844 36.2795 22.8844 35.7365V23.0117C22.8846 22.4276 23.0548 21.8572 23.3726 21.3756C23.6903 20.894 24.1407 20.5237 24.6645 20.3134C26.5457 19.5335 28.1588 18.1847 29.2955 16.4412C30.4322 14.6977 31.0402 12.6396 31.041 10.5329C31.041 9.14846 30.7787 7.77763 30.269 6.49879C29.7593 5.21994 29.0123 4.05815 28.0707 3.07989C27.1291 2.10164 26.0113 1.32612 24.7814 0.797643C23.5514 0.269168 22.2333 -0.00189173 20.9026 9.93704e-06Z" fill="#2FC3B1"/>
    <path d="M37.7375 47.0001H4.25573C3.573 47.0002 2.90027 46.8294 2.29433 46.5021C1.6884 46.1749 1.16708 45.7007 0.774326 45.1197C0.381571 44.5388 0.128928 43.868 0.0377511 43.1641C-0.0534256 42.4602 0.0195448 41.7438 0.250469 41.0754L4.74945 28.054C5.04558 27.1953 5.5891 26.4525 6.30588 25.9269C7.02265 25.4013 7.87782 25.1184 8.75476 25.117H11.1816C11.4582 25.117 11.7235 25.2313 11.9191 25.4348C12.1147 25.6383 12.2246 25.9143 12.2246 26.2021C12.2246 26.4899 12.1147 26.7659 11.9191 26.9694C11.7235 27.1729 11.4582 27.2872 11.1816 27.2872H8.75476C8.30737 27.2879 7.87109 27.4321 7.50528 27.7C7.13946 27.968 6.8619 28.3467 6.71039 28.7847L2.21136 41.8061C2.0929 42.1472 2.05523 42.513 2.10152 42.8725C2.14781 43.232 2.27671 43.5746 2.4773 43.8713C2.67788 44.168 2.94427 44.41 3.25385 44.5769C3.56343 44.7438 3.90707 44.8306 4.25573 44.8299H37.7375C38.0799 44.8328 38.418 44.7513 38.7243 44.5921C39.0306 44.433 39.2963 44.2007 39.4998 43.9142C39.7033 43.6278 39.8386 43.2953 39.8949 42.944C39.9512 42.5927 39.9268 42.2325 39.8236 41.8929L35.8879 28.8715C35.7503 28.4091 35.4729 28.0052 35.0971 27.7198C34.7213 27.4344 34.2671 27.2827 33.8018 27.2872H31.3611C31.0844 27.2872 30.8191 27.1729 30.6235 26.9694C30.4279 26.7659 30.318 26.4899 30.318 26.2021C30.318 25.9143 30.4279 25.6383 30.6235 25.4348C30.8191 25.2313 31.0844 25.117 31.3611 25.117H33.8018C34.7087 25.1147 35.5923 25.4148 36.3232 25.9734C37.0541 26.5319 37.5936 27.3194 37.8627 28.2204L41.7985 41.2779C41.9997 41.9409 42.0478 42.644 41.9388 43.33C41.8298 44.0159 41.5668 44.6654 41.1711 45.2258C40.7754 45.7861 40.2583 46.2415 39.6617 46.5548C39.0651 46.8681 38.4059 47.0306 37.7375 47.0291V47.0001Z" fill="#2FC3B1"/>
  </g>
  <defs>
    <clipPath id="clip0_38_9507">
      <rect fill="white"/>
    </clipPath>
  </defs>
</svg>
