<svg width="180" height="41" viewBox="0 0 180 41" fill="none" xmlns="http://www.w3.org/2000/svg">
<g clip-path="url(#clip0_3_131)">
<path d="M29.8709 15.3495V12.8011C29.8709 9.40602 28.5033 6.15001 26.0688 3.74935C23.6344 1.34868 20.3327 0 16.8899 0H10.3313C7.584 0 4.94924 1.07623 3.00662 2.99192C1.064 4.90761 -0.0273424 7.50585 -0.0273424 10.2151V30.1344C-0.0280586 31.5639 0.256831 32.9795 0.811053 34.3003C1.36528 35.6212 2.17797 36.8214 3.2027 37.8324C4.22744 38.8435 5.44413 39.6455 6.78327 40.1927C8.12241 40.7399 9.55775 41.0215 11.0073 41.0215H25.7274C28.8188 41.0215 31.7836 39.8105 33.9696 37.6548C36.1556 35.4992 37.3836 32.5755 37.3836 29.5269V27.6613C37.3889 25.6685 36.8396 23.7124 35.7956 22.006C34.7517 20.2997 33.253 18.9085 31.4628 17.9839C30.979 17.7298 30.5749 17.35 30.2943 16.8856C30.0137 16.4213 29.8672 15.89 29.8709 15.3495Z" fill="#2FC3B1"/>
<path d="M23.2577 30.2365C23.0361 30.236 22.8177 30.1845 22.6199 30.086L15.9249 26.7365C15.4296 26.4852 15.0146 26.1035 14.7259 25.6337C14.4372 25.164 14.2861 24.6245 14.2894 24.0752V11.4354C14.2894 11.0661 14.4381 10.7119 14.7029 10.4508C14.9677 10.1897 15.3269 10.043 15.7014 10.043C16.0759 10.043 16.4351 10.1897 16.6999 10.4508C16.9647 10.7119 17.1134 11.0661 17.1134 11.4354V24.0752C17.1137 24.111 17.124 24.1461 17.1433 24.1765C17.1625 24.2068 17.1899 24.2313 17.2225 24.2473L23.9174 27.6021C24.2009 27.7438 24.4276 27.9757 24.5608 28.2603C24.694 28.5448 24.7261 28.8654 24.6516 29.1701C24.5772 29.4748 24.4008 29.7458 24.1508 29.9393C23.9008 30.1329 23.5919 30.2376 23.2741 30.2365H23.2577Z" fill="#1E373F"/>
<path d="M76.2885 17.0913V19.2419C76.2885 19.4287 76.2132 19.6078 76.0793 19.7399C75.9454 19.872 75.7637 19.9462 75.5743 19.9462H68.9175V21.2956H78.5019C78.6904 21.2956 78.8713 21.3691 79.005 21.5C79.1388 21.631 79.2147 21.8087 79.2161 21.9946V24.7849C79.2147 24.9707 79.1388 25.1485 79.005 25.2794C78.8713 25.4104 78.6904 25.4838 78.5019 25.4838H74.7292V26.8333H78.1912C78.3806 26.8333 78.5623 26.9075 78.6962 27.0396C78.8301 27.1716 78.9054 27.3508 78.9054 27.5376V30.3978C78.9054 30.5846 78.8301 30.7637 78.6962 30.8958C78.5623 31.0279 78.3806 31.1021 78.1912 31.1021H74.7292V36.0591C74.7292 36.6023 74.5104 37.1234 74.1208 37.5075C73.7313 37.8917 73.203 38.1075 72.6521 38.1075H68.1106C68.0033 38.1103 67.8975 38.0819 67.8065 38.0257C67.7155 37.9695 67.6434 37.8881 67.5991 37.7916C67.5549 37.6952 67.5405 37.588 67.5578 37.4835C67.575 37.379 67.6232 37.2818 67.6963 37.2042L68.3287 36.4892V31.1129H53.1615C53.068 31.1129 52.9754 31.0946 52.889 31.0591C52.8027 31.0237 52.7243 30.9717 52.6584 30.9062C52.5925 30.8408 52.5404 30.7631 52.5051 30.6777C52.4698 30.5923 52.452 30.5008 52.4528 30.4085V27.5483C52.4528 27.3625 52.5272 27.1841 52.66 27.0522C52.7928 26.9203 52.973 26.8455 53.1615 26.844H68.3287V25.5107H52.8126C52.6241 25.5107 52.4433 25.4372 52.3095 25.3063C52.1757 25.1754 52.0998 24.9976 52.0984 24.8118V22.0161C52.0998 21.8302 52.1757 21.6524 52.3095 21.5215C52.4433 21.3906 52.6241 21.3172 52.8126 21.3172H62.4406V19.9677H55.7784C55.589 19.9677 55.4073 19.8935 55.2734 19.7614C55.1395 19.6293 55.0642 19.4502 55.0642 19.2634V17.1129C55.0642 16.9261 55.1395 16.7469 55.2734 16.6148C55.4073 16.4828 55.589 16.4086 55.7784 16.4086H62.4406V15.4193C62.4406 15.2339 62.5153 15.0562 62.6482 14.9251C62.7811 14.794 62.9614 14.7204 63.1494 14.7204H68.2033C68.3918 14.7204 68.5726 14.7938 68.7064 14.9248C68.8402 15.0557 68.9161 15.2334 68.9175 15.4193V16.3709H75.5743C75.6695 16.3709 75.7637 16.3896 75.8514 16.426C75.9392 16.4624 76.0186 16.5157 76.0852 16.5829C76.1517 16.65 76.204 16.7295 76.2389 16.8169C76.2738 16.9042 76.2907 16.9975 76.2885 17.0913ZM56.5308 14.043H52.8017C52.7247 14.0382 52.6497 14.0173 52.5816 13.9818C52.5134 13.9463 52.4536 13.8969 52.4062 13.837C52.3588 13.777 52.3249 13.7078 52.3066 13.634C52.2883 13.5601 52.2861 13.4833 52.3001 13.4085L54.2246 5.96232C54.2525 5.85335 54.3164 5.75665 54.4063 5.68752C54.4961 5.61838 54.6068 5.58076 54.7208 5.58059H58.2863C58.3629 5.58047 58.4386 5.59729 58.5078 5.62983C58.5769 5.66236 58.6378 5.70978 58.6859 5.76858C58.7341 5.82739 58.7682 5.89609 58.7858 5.96962C58.8035 6.04316 58.8042 6.11966 58.7879 6.1935L58.4226 7.84941H64.616C64.7519 7.84941 64.8822 7.90266 64.9783 7.99743C65.0744 8.09221 65.1284 8.22075 65.1284 8.35478V10.9569C65.1284 11.091 65.0744 11.2195 64.9783 11.3143C64.8822 11.4091 64.7519 11.4623 64.616 11.4623H63.7655V13.5376C63.7655 13.6716 63.7115 13.8002 63.6154 13.8949C63.5192 13.9897 63.3889 14.043 63.253 14.043H59.2458C59.1099 14.043 58.9796 13.9897 58.8835 13.8949C58.7873 13.8002 58.7334 13.6716 58.7334 13.5376V11.4623H57.5612L57.016 13.6559C56.9896 13.7641 56.9278 13.8607 56.84 13.9307C56.7523 14.0007 56.6436 14.0401 56.5308 14.043ZM61.9827 33.4516V35.2634C61.9812 35.5738 61.8556 35.8711 61.633 36.0906C61.4104 36.3101 61.1089 36.434 60.7942 36.4354H56.6562C56.341 36.4354 56.0387 36.312 55.8158 36.0922C55.5929 35.8724 55.4677 35.5742 55.4677 35.2634V33.4516C55.4677 33.1407 55.5929 32.8426 55.8158 32.6228C56.0387 32.403 56.341 32.2795 56.6562 32.2795H60.7942C60.9546 32.273 61.1147 32.2985 61.2649 32.3544C61.4151 32.4103 61.5523 32.4955 61.6684 32.6049C61.7844 32.7143 61.8769 32.8457 61.9403 32.9912C62.0036 33.1367 62.0366 33.2932 62.0372 33.4516H61.9827ZM69.5663 14.043H65.8535C65.775 14.0431 65.6976 14.0254 65.6271 13.9913C65.5566 13.9571 65.495 13.9075 65.4471 13.8462C65.3991 13.7849 65.3661 13.7136 65.3506 13.6377C65.335 13.5618 65.3374 13.4834 65.3574 13.4085L67.2765 5.96232C67.3093 5.8551 67.3753 5.76066 67.4653 5.69222C67.5552 5.62379 67.6645 5.58476 67.7781 5.58059H71.3327C71.4104 5.57986 71.4872 5.59673 71.5572 5.62991C71.6272 5.66309 71.6885 5.7117 71.7365 5.77196C71.7844 5.83223 71.8177 5.90255 71.8337 5.9775C71.8497 6.05245 71.848 6.13003 71.8288 6.20425L71.4363 7.84941H79.2271C79.3614 7.85581 79.4886 7.91095 79.5842 8.00424C79.6798 8.09753 79.7371 8.22238 79.745 8.35478V10.9569C79.7371 11.0893 79.6798 11.2142 79.5842 11.3075C79.4886 11.4008 79.3614 11.4559 79.2271 11.4623H77.8695V13.5376C77.8695 13.6716 77.8155 13.8002 77.7194 13.8949C77.6233 13.9897 77.493 14.043 77.3571 14.043H73.3499C73.214 14.043 73.0836 13.9897 72.9875 13.8949C72.8914 13.8002 72.8374 13.6716 72.8374 13.5376V11.4623H70.5749L70.0788 13.6451C70.0554 13.7557 69.9947 13.8553 69.9066 13.9275C69.8184 13.9998 69.7081 14.0405 69.5935 14.043H69.5663Z" fill="#2FC3B1"/>
<path d="M109.469 17.0913V19.2419C109.469 19.4287 109.393 19.6078 109.259 19.7399C109.126 19.872 108.944 19.9462 108.754 19.9462H102.092V21.2956H111.682C111.871 21.2956 112.051 21.3691 112.185 21.5C112.319 21.6309 112.395 21.8087 112.396 21.9945V24.7849C112.395 24.9707 112.319 25.1485 112.185 25.2794C112.051 25.4103 111.871 25.4838 111.682 25.4838H107.909V26.8333H111.371C111.561 26.8333 111.742 26.9075 111.876 27.0395C112.01 27.1716 112.086 27.3508 112.086 27.5376V30.3978C112.086 30.5846 112.01 30.7637 111.876 30.8958C111.742 31.0279 111.561 31.1021 111.371 31.1021H107.909V36.0591C107.908 36.6019 107.689 37.1221 107.299 37.5059C106.91 37.8898 106.383 38.106 105.832 38.1074H101.291C101.183 38.1103 101.078 38.0819 100.987 38.0257C100.896 37.9695 100.824 37.8881 100.779 37.7916C100.735 37.6951 100.721 37.5879 100.738 37.4834C100.755 37.379 100.803 37.2818 100.876 37.2042L101.514 36.4892V31.1128H86.3417C86.1523 31.1128 85.9706 31.0386 85.8367 30.9065C85.7027 30.7745 85.6275 30.5953 85.6275 30.4085V27.5483C85.6275 27.3615 85.7027 27.1824 85.8367 27.0503C85.9706 26.9182 86.1523 26.844 86.3417 26.844H101.509V25.5107H85.9928C85.8043 25.5107 85.6234 25.4372 85.4897 25.3063C85.3559 25.1754 85.28 24.9976 85.2786 24.8118V22.0161C85.28 21.8302 85.3559 21.6524 85.4897 21.5215C85.6234 21.3906 85.8043 21.3171 85.9928 21.3171H95.6154V19.9677H88.9586C88.7692 19.9677 88.5875 19.8935 88.4536 19.7614C88.3196 19.6293 88.2444 19.4502 88.2444 19.2634V17.1128C88.2444 16.926 88.3196 16.7469 88.4536 16.6148C88.5875 16.4827 88.7692 16.4085 88.9586 16.4085H95.6154V15.4193C95.6168 15.2334 95.6927 15.0557 95.8265 14.9247C95.9602 14.7938 96.1411 14.7203 96.3296 14.7204H101.383C101.571 14.7204 101.752 14.794 101.885 14.9251C102.018 15.0561 102.092 15.2339 102.092 15.4193V16.3709H108.754C108.85 16.3709 108.944 16.3896 109.032 16.426C109.119 16.4624 109.199 16.5157 109.265 16.5828C109.332 16.65 109.384 16.7295 109.419 16.8168C109.454 16.9042 109.471 16.9975 109.469 17.0913ZM89.711 14.0429H85.9819C85.9049 14.0381 85.8299 14.0173 85.7617 13.9818C85.6936 13.9463 85.6338 13.8969 85.5864 13.837C85.539 13.777 85.505 13.7078 85.4868 13.634C85.4685 13.5601 85.4663 13.4833 85.4803 13.4085L87.4048 5.9623C87.4327 5.85333 87.4966 5.75663 87.5865 5.68749C87.6763 5.61836 87.787 5.58074 87.9009 5.58057H91.4774C91.554 5.58044 91.6297 5.59727 91.6988 5.62981C91.768 5.66234 91.8289 5.70976 91.877 5.76856C91.9251 5.82737 91.9593 5.89606 91.9769 5.9696C91.9945 6.04314 91.9953 6.11964 91.979 6.19348L91.6082 7.84939H97.807C97.9429 7.84939 98.0733 7.90264 98.1694 7.99741C98.2655 8.09219 98.3195 8.22073 98.3195 8.35476V10.9569C98.3195 11.0909 98.2655 11.2195 98.1694 11.3143C98.0733 11.409 97.9429 11.4623 97.807 11.4623H96.9293V13.5376C96.9293 13.6716 96.8753 13.8001 96.7792 13.8949C96.6831 13.9897 96.5527 14.0429 96.4168 14.0429H92.4096C92.2737 14.0429 92.1434 13.9897 92.0473 13.8949C91.9512 13.8001 91.8972 13.6716 91.8972 13.5376V11.4623H90.725L90.1798 13.6558C90.1542 13.7615 90.0948 13.8562 90.0103 13.9259C89.9259 13.9956 89.8209 14.0367 89.711 14.0429ZM95.1901 33.4515V35.2634C95.1887 35.5738 95.063 35.8711 94.8404 36.0906C94.6178 36.3101 94.3164 36.434 94.0016 36.4354H89.8418C89.5266 36.4354 89.2243 36.3119 89.0014 36.0921C88.7785 35.8723 88.6533 35.5742 88.6533 35.2634V33.4515C88.6533 33.1407 88.7785 32.8426 89.0014 32.6228C89.2243 32.403 89.5266 32.2795 89.8418 32.2795H93.9798C94.1375 32.2774 94.2941 32.3061 94.4405 32.3639C94.5869 32.4218 94.7202 32.5077 94.8327 32.6167C94.9453 32.7257 95.0348 32.8556 95.0961 32.9989C95.1575 33.1421 95.1894 33.296 95.1901 33.4515ZM102.774 14.0429H99.0501C98.9716 14.043 98.8941 14.0253 98.8236 13.9912C98.7531 13.9571 98.6915 13.9075 98.6436 13.8462C98.5957 13.7849 98.5627 13.7135 98.5471 13.6377C98.5316 13.5618 98.5339 13.4834 98.5539 13.4085L100.473 5.9623C100.506 5.85508 100.572 5.76064 100.662 5.6922C100.752 5.62377 100.861 5.58474 100.975 5.58057H104.529C104.607 5.58088 104.683 5.59845 104.752 5.63195C104.822 5.66546 104.883 5.71402 104.93 5.77401C104.978 5.834 105.011 5.90387 105.028 5.97838C105.044 6.05288 105.043 6.13009 105.025 6.20422L104.633 7.84939H112.424C112.558 7.85579 112.685 7.91093 112.781 8.00422C112.876 8.09751 112.934 8.22236 112.942 8.35476V10.9569C112.934 11.0893 112.876 11.2142 112.781 11.3075C112.685 11.4007 112.558 11.4559 112.424 11.4623H111.066V13.5376C111.066 13.6716 111.012 13.8001 110.916 13.8949C110.82 13.9897 110.689 14.0429 110.554 14.0429H106.546C106.411 14.0429 106.28 13.9897 106.184 13.8949C106.088 13.8001 106.034 13.6716 106.034 13.5376V11.4623H103.771L103.275 13.6451C103.25 13.7579 103.187 13.859 103.096 13.9314C103.004 14.0037 102.891 14.0431 102.774 14.0429Z" fill="#2FC3B1"/>
<path d="M121.67 22.9033L118.726 20.7151C118.498 20.5485 118.345 20.3009 118.299 20.0249C118.253 19.7489 118.318 19.4661 118.481 19.2366L127.204 6.74197C127.284 6.62431 127.388 6.52354 127.508 6.44546C127.628 6.36738 127.763 6.31354 127.904 6.28705C128.045 6.26055 128.191 6.26194 128.332 6.29111C128.472 6.32029 128.606 6.37668 128.725 6.45702L131.598 8.371C131.718 8.44956 131.821 8.55085 131.902 8.66899C131.982 8.78714 132.037 8.91979 132.065 9.05929C132.093 9.19879 132.093 9.34236 132.064 9.48169C132.035 9.62102 131.979 9.75335 131.898 9.87101L123.278 22.6344C123.197 22.7634 123.088 22.8739 122.96 22.9585C122.832 23.0431 122.687 23.1 122.535 23.1254C122.383 23.1508 122.228 23.1441 122.079 23.1059C121.929 23.0676 121.79 22.9985 121.67 22.9033ZM144.906 37.0914L121.337 37.242C120.716 37.242 120.716 36.6291 120.869 36.242L128.85 18.5C128.919 18.3465 129.018 18.208 129.142 18.0925C129.266 17.9771 129.411 17.887 129.571 17.8275C129.73 17.768 129.899 17.7402 130.07 17.7458C130.24 17.7515 130.407 17.7904 130.562 17.8602L133.833 19.3119C133.988 19.3799 134.127 19.4773 134.243 19.5985C134.359 19.7196 134.45 19.8622 134.51 20.018C134.57 20.1738 134.599 20.3397 134.594 20.5064C134.589 20.6731 134.551 20.8371 134.482 20.9893L129.51 31.9624L137.077 31.7689L135.125 27.5861C134.986 27.2933 134.965 26.9594 135.066 26.652C135.168 26.3445 135.384 26.0865 135.67 25.9301L138.533 24.4086C138.689 24.3269 138.86 24.2774 139.036 24.2633C139.213 24.2492 139.39 24.2707 139.557 24.3266C139.725 24.3825 139.879 24.4715 140.01 24.5883C140.142 24.705 140.247 24.8469 140.321 25.0054L145.451 36.0108C145.626 36.4355 145.702 37.0914 144.906 37.0914ZM142.425 22.6344L133.784 9.87101C133.703 9.75335 133.647 9.62102 133.618 9.48169C133.589 9.34236 133.589 9.19879 133.617 9.05929C133.645 8.91979 133.7 8.78714 133.78 8.66899C133.861 8.55085 133.964 8.44956 134.084 8.371L135.785 7.2366L136.952 6.45702C137.071 6.37583 137.205 6.31875 137.346 6.28911C137.487 6.25947 137.633 6.25787 137.775 6.28439C137.917 6.3109 138.053 6.36501 138.173 6.44357C138.294 6.52213 138.398 6.62356 138.478 6.74197L147.201 19.2366C147.363 19.4661 147.428 19.7489 147.383 20.0249C147.337 20.3009 147.184 20.5485 146.956 20.7151L144.006 22.9033C143.886 22.9976 143.748 23.0659 143.599 23.1036C143.45 23.1414 143.295 23.1478 143.144 23.1224C142.993 23.0971 142.849 23.0405 142.721 22.9564C142.593 22.8723 142.485 22.7626 142.404 22.6344H142.425Z" fill="#2FC3B1"/>
<path d="M178.85 29.8118H169.62V28.4247H176.2C176.422 28.4254 176.641 28.3829 176.846 28.2998C177.051 28.2166 177.238 28.0943 177.395 27.94C177.552 27.7857 177.676 27.6023 177.761 27.4004C177.846 27.1985 177.89 26.982 177.89 26.7634V15.5537C177.89 15.1117 177.712 14.6878 177.395 14.3752C177.078 14.0626 176.648 13.8871 176.2 13.8871H169.658V12.5053H178.163C178.467 12.5039 178.759 12.3839 178.974 12.1715C179.19 11.9591 179.312 11.6714 179.313 11.3709V8.79027C179.313 8.48941 179.192 8.20086 178.976 7.98812C178.76 7.77538 178.468 7.65587 178.163 7.65587H169.62V6.6935C169.62 6.54478 169.59 6.39753 169.532 6.2602C169.474 6.12287 169.389 5.99816 169.282 5.89325C169.175 5.78834 169.049 5.70529 168.909 5.64887C168.769 5.59244 168.62 5.56376 168.469 5.56447H164.108C163.804 5.56446 163.512 5.68325 163.296 5.89483C163.081 6.10641 162.959 6.39357 162.957 6.6935V7.63974H154.458C154.307 7.63974 154.158 7.66912 154.018 7.72619C153.879 7.78327 153.753 7.86691 153.646 7.97232C153.54 8.07773 153.456 8.20283 153.398 8.34043C153.341 8.47804 153.312 8.62543 153.313 8.77414V11.3548C153.313 11.6547 153.433 11.9425 153.648 12.155C153.862 12.3676 154.154 12.4878 154.458 12.4892H162.985V13.8709H156.404C155.956 13.8709 155.526 14.0465 155.209 14.3591C154.892 14.6716 154.714 15.0956 154.714 15.5376V26.7526C154.714 26.9713 154.758 27.1877 154.843 27.3896C154.928 27.5915 155.052 27.7749 155.209 27.9293C155.366 28.0836 155.553 28.2059 155.758 28.289C155.963 28.3722 156.182 28.4146 156.404 28.4139H162.985V29.8118H153.755C153.604 29.8118 153.454 29.8412 153.315 29.8982C153.176 29.9553 153.049 30.039 152.943 30.1444C152.837 30.2498 152.752 30.3749 152.695 30.5125C152.638 30.6501 152.609 30.7975 152.61 30.9462V33.6828C152.61 33.9822 152.73 34.2694 152.945 34.4811C153.16 34.6928 153.451 34.8118 153.755 34.8118H162.985V36.9892C162.985 37.2901 163.106 37.5786 163.322 37.7913C163.537 38.0041 163.83 38.1236 164.135 38.1236H168.496C168.648 38.1243 168.798 38.0955 168.938 38.0387C169.077 37.9819 169.205 37.8984 169.311 37.793C169.418 37.6875 169.503 37.5621 169.561 37.4241C169.618 37.2862 169.648 37.1384 169.647 36.9892V34.8118H178.877C179.181 34.8118 179.473 34.693 179.688 34.4814C179.904 34.2699 180.026 33.9827 180.027 33.6828V30.9462C180.027 30.7949 179.997 30.6452 179.937 30.5058C179.878 30.3664 179.79 30.2401 179.681 30.1344C179.571 30.0287 179.441 29.9457 179.298 29.8903C179.155 29.8349 179.003 29.8082 178.85 29.8118Z" fill="#2FC3B1"/>
<path d="M170.061 25.0969C169.959 25.0981 169.857 25.0741 169.767 25.027L167.362 23.7205C167.21 23.8357 167.036 23.9189 166.849 23.9651C166.663 24.0112 166.47 24.0193 166.28 23.9888C166.091 23.9584 165.91 23.89 165.748 23.788C165.586 23.6859 165.448 23.5523 165.34 23.3954C165.233 23.2385 165.159 23.0616 165.124 22.8756C165.089 22.6896 165.092 22.4984 165.134 22.3138C165.177 22.1293 165.257 21.9552 165.37 21.8023C165.483 21.6494 165.627 21.5209 165.792 21.4248V16.5001C165.792 16.3404 165.857 16.1872 165.971 16.0743C166.086 15.9614 166.241 15.8979 166.403 15.8979C166.565 15.8979 166.72 15.9614 166.835 16.0743C166.949 16.1872 167.013 16.3404 167.013 16.5001V21.3388C167.281 21.4397 167.511 21.618 167.673 21.8502C167.836 22.0825 167.923 22.3577 167.924 22.6399L170.355 23.9786C170.475 24.0415 170.571 24.1424 170.625 24.2651C170.68 24.3878 170.691 24.5251 170.657 24.6549C170.623 24.7846 170.546 24.8993 170.438 24.9805C170.33 25.0617 170.197 25.1045 170.061 25.1022V25.0969Z" fill="#1E373F"/>
</g>
<defs>
<clipPath id="clip0_3_131">
<rect width="180" height="41" fill="white"/>
</clipPath>
</defs>
</svg>
