<svg width="133" height="30" viewBox="0 0 133 30" fill="none" xmlns="http://www.w3.org/2000/svg">
<g clip-path="url(#clip0_15_1472)">
<path d="M22.0719 11.2313V9.36664C22.0719 6.88245 21.0614 4.50001 19.2627 2.74342C17.4639 0.986839 15.0243 0 12.4804 0H7.63433C5.6044 0 3.65761 0.787483 2.22223 2.18921C0.786854 3.59094 -0.0195303 5.49209 -0.0195303 7.47443V22.0496C-0.0200594 23.0955 0.190442 24.1313 0.599951 25.0978C1.00946 26.0643 1.60995 26.9425 2.36711 27.6823C3.12428 28.4221 4.02328 29.0089 5.01275 29.4093C6.00223 29.8097 7.06279 30.0157 8.13385 30.0157H19.0104C21.2946 30.0157 23.4853 29.1296 25.1004 27.5523C26.7156 25.975 27.623 23.8357 27.623 21.605V20.24C27.6269 18.7818 27.221 17.3505 26.4497 16.102C25.6783 14.8534 24.571 13.8355 23.2482 13.1589C22.8907 12.973 22.5921 12.6951 22.3848 12.3553C22.1774 12.0156 22.0692 11.6269 22.0719 11.2313Z" fill="#AFECE4"/>
<path d="M17.185 22.1244C17.0213 22.124 16.8599 22.0863 16.7137 22.0142L11.7669 19.5634C11.4009 19.3795 11.0942 19.1002 10.8809 18.7565C10.6676 18.4128 10.556 18.0181 10.5584 17.6161V8.36751C10.5584 8.09729 10.6683 7.83813 10.864 7.64705C11.0596 7.45597 11.325 7.34863 11.6017 7.34863C11.8784 7.34863 12.1438 7.45597 12.3395 7.64705C12.5351 7.83813 12.6451 8.09729 12.6451 8.36751V17.6161C12.6453 17.6423 12.6529 17.668 12.6671 17.6902C12.6813 17.7124 12.7016 17.7304 12.7256 17.742L17.6725 20.1968C17.8819 20.3005 18.0494 20.4702 18.1478 20.6784C18.2463 20.8866 18.2699 21.1211 18.215 21.3441C18.16 21.567 18.0296 21.7653 17.8449 21.9069C17.6602 22.0486 17.4319 22.1252 17.1971 22.1244H17.185Z" fill="#1E373F"/>
<path d="M56.3687 12.5058V14.0793C56.3687 14.216 56.3131 14.3471 56.2141 14.4437C56.1151 14.5404 55.9809 14.5947 55.841 14.5947H50.9223V15.5821H58.0042C58.1434 15.5821 58.2771 15.6358 58.3759 15.7316C58.4748 15.8274 58.5308 15.9575 58.5319 16.0935V18.1352C58.5308 18.2712 58.4748 18.4013 58.3759 18.4971C58.2771 18.5929 58.1434 18.6466 58.0042 18.6466H55.2166V19.634H57.7746C57.9145 19.634 58.0487 19.6883 58.1477 19.785C58.2467 19.8816 58.3023 20.0127 58.3023 20.1494V22.2422C58.3023 22.3789 58.2467 22.51 58.1477 22.6066C58.0487 22.7032 57.9145 22.7575 57.7746 22.7575H55.2166V26.3846C55.2166 26.7821 55.0549 27.1634 54.767 27.4444C54.4792 27.7255 54.0888 27.8834 53.6818 27.8834H50.3261C50.2468 27.8855 50.1687 27.8647 50.1014 27.8236C50.0342 27.7825 49.9809 27.7229 49.9482 27.6523C49.9155 27.5817 49.9049 27.5033 49.9176 27.4268C49.9304 27.3504 49.966 27.2793 50.02 27.2225L50.4873 26.6993V22.7654H39.2804C39.2113 22.7654 39.1429 22.7521 39.0791 22.7261C39.0153 22.7002 38.9573 22.6621 38.9087 22.6142C38.86 22.5663 38.8215 22.5095 38.7954 22.447C38.7693 22.3845 38.7562 22.3176 38.7567 22.2501V20.1572C38.7567 20.0212 38.8118 19.8908 38.9098 19.7942C39.0079 19.6977 39.1411 19.6429 39.2804 19.6419H50.4873V18.6663H39.0226C38.8833 18.6663 38.7497 18.6125 38.6509 18.5167C38.552 18.4209 38.4959 18.2909 38.4949 18.1549V16.1092C38.4959 15.9732 38.552 15.8432 38.6509 15.7474C38.7497 15.6516 38.8833 15.5978 39.0226 15.5978H46.1367V14.6104H41.214C41.0741 14.6104 40.9398 14.5561 40.8409 14.4595C40.7419 14.3628 40.6863 14.2318 40.6863 14.0951V12.5215C40.6863 12.3848 40.7419 12.2538 40.8409 12.1571C40.9398 12.0605 41.0741 12.0062 41.214 12.0062H46.1367V11.2823C46.1367 11.1467 46.1918 11.0166 46.29 10.9207C46.3882 10.8248 46.5214 10.7709 46.6603 10.7709H50.3946C50.5339 10.7709 50.6675 10.8247 50.7664 10.9205C50.8652 11.0163 50.9213 11.1463 50.9223 11.2823V11.9786H55.841C55.9113 11.9786 55.9809 11.9923 56.0457 12.019C56.1106 12.0456 56.1693 12.0846 56.2184 12.1337C56.2676 12.1828 56.3062 12.241 56.332 12.3049C56.3578 12.3688 56.3703 12.4371 56.3687 12.5058ZM41.7699 10.2753H39.0145C38.9577 10.2717 38.9022 10.2565 38.8519 10.2305C38.8015 10.2045 38.7574 10.1684 38.7223 10.1245C38.6873 10.0807 38.6622 10.03 38.6487 9.976C38.6352 9.92196 38.6336 9.86574 38.6439 9.81104L40.0659 4.36259C40.0865 4.28285 40.1338 4.21209 40.2001 4.16151C40.2665 4.11092 40.3483 4.08339 40.4325 4.08327H43.067C43.1237 4.08318 43.1796 4.09549 43.2307 4.1193C43.2818 4.1431 43.3268 4.1778 43.3623 4.22083C43.3979 4.26385 43.4231 4.31412 43.4362 4.36793C43.4492 4.42173 43.4497 4.47771 43.4377 4.53174L43.1678 5.74338H47.744C47.8444 5.74338 47.9407 5.78234 48.0117 5.85169C48.0827 5.92104 48.1226 6.01509 48.1226 6.11317V8.01718C48.1226 8.11525 48.0827 8.20931 48.0117 8.27866C47.9407 8.348 47.8444 8.38697 47.744 8.38697H47.1155V9.90546C47.1155 10.0035 47.0757 10.0976 47.0046 10.1669C46.9336 10.2363 46.8373 10.2753 46.7369 10.2753H43.776C43.6756 10.2753 43.5793 10.2363 43.5083 10.1669C43.4373 10.0976 43.3974 10.0035 43.3974 9.90546V8.38697H42.5313L42.1284 9.99201C42.109 10.0712 42.0633 10.1419 41.9984 10.1931C41.9336 10.2443 41.8533 10.2732 41.7699 10.2753ZM45.7983 24.4767V25.8024C45.7972 26.0295 45.7044 26.2471 45.5399 26.4077C45.3754 26.5683 45.1527 26.659 44.9201 26.66H41.8626C41.6297 26.66 41.4063 26.5696 41.2416 26.4088C41.0769 26.248 40.9844 26.0298 40.9844 25.8024V24.4767C40.9844 24.2492 41.0769 24.0311 41.2416 23.8703C41.4063 23.7094 41.6297 23.6191 41.8626 23.6191H44.9201C45.0386 23.6143 45.1569 23.6329 45.2679 23.6739C45.3789 23.7148 45.4803 23.7771 45.566 23.8572C45.6518 23.9372 45.7201 24.0334 45.7669 24.1398C45.8138 24.2462 45.8381 24.3608 45.8386 24.4767H45.7983ZM51.4017 10.2753H48.6584C48.6004 10.2753 48.5432 10.2624 48.4911 10.2374C48.439 10.2125 48.3935 10.1761 48.3581 10.1313C48.3227 10.0864 48.2983 10.0342 48.2868 9.9787C48.2753 9.92317 48.277 9.86581 48.2918 9.81104L49.7098 4.36259C49.7341 4.28413 49.7829 4.21503 49.8493 4.16495C49.9157 4.11488 49.9965 4.08632 50.0804 4.08327H52.7069C52.7643 4.08273 52.821 4.09508 52.8728 4.11936C52.9245 4.14363 52.9698 4.1792 53.0052 4.2233C53.0407 4.2674 53.0652 4.31885 53.0771 4.37369C53.0889 4.42853 53.0877 4.4853 53.0735 4.5396L52.7834 5.74338H58.5399C58.6392 5.74806 58.7332 5.78841 58.8038 5.85667C58.8745 5.92493 58.9168 6.01629 58.9226 6.11317V8.01718C58.9168 8.11406 58.8745 8.20541 58.8038 8.27367C58.7332 8.34193 58.6392 8.38228 58.5399 8.38697H57.5369V9.90546C57.5369 10.0035 57.497 10.0976 57.426 10.1669C57.355 10.2363 57.2587 10.2753 57.1582 10.2753H54.1974C54.097 10.2753 54.0006 10.2363 53.9296 10.1669C53.8586 10.0976 53.8187 10.0035 53.8187 9.90546V8.38697H52.147L51.7804 9.98414C51.7631 10.0651 51.7182 10.1379 51.6531 10.1908C51.588 10.2437 51.5065 10.2734 51.4219 10.2753H51.4017Z" fill="white"/>
<path d="M80.8853 12.5058V14.0793C80.8853 14.216 80.8297 14.3471 80.7307 14.4437C80.6317 14.5404 80.4975 14.5947 80.3575 14.5947H75.4349V15.5821H82.5208C82.66 15.5821 82.7937 15.6358 82.8925 15.7316C82.9914 15.8274 83.0474 15.9575 83.0485 16.0935V18.1352C83.0474 18.2712 82.9914 18.4012 82.8925 18.497C82.7937 18.5928 82.66 18.6466 82.5208 18.6466H79.7332V19.634H82.2912C82.4311 19.634 82.5653 19.6883 82.6643 19.7849C82.7633 19.8816 82.8189 20.0127 82.8189 20.1493V22.2422C82.8189 22.3789 82.7633 22.5099 82.6643 22.6066C82.5653 22.7032 82.4311 22.7575 82.2912 22.7575H79.7332V26.3846C79.7321 26.7818 79.57 27.1624 79.2824 27.4433C78.9948 27.7241 78.6051 27.8824 78.1983 27.8834H74.8427C74.7634 27.8855 74.6853 27.8647 74.618 27.8236C74.5508 27.7825 74.4975 27.7229 74.4648 27.6523C74.4321 27.5817 74.4215 27.5033 74.4342 27.4268C74.447 27.3504 74.4826 27.2793 74.5366 27.2225L75.0079 26.6993V22.7654H63.797C63.657 22.7654 63.5228 22.7111 63.4238 22.6145C63.3249 22.5178 63.2693 22.3867 63.2693 22.25V20.1572C63.2693 20.0205 63.3249 19.8895 63.4238 19.7928C63.5228 19.6962 63.657 19.6419 63.797 19.6419H75.0039V18.6663H63.5392C63.3999 18.6663 63.2663 18.6125 63.1675 18.5167C63.0686 18.4209 63.0125 18.2909 63.0115 18.1549V16.1092C63.0125 15.9732 63.0686 15.8432 63.1675 15.7474C63.2663 15.6516 63.3999 15.5978 63.5392 15.5978H70.6492V14.6104H65.7306C65.5907 14.6104 65.4564 14.5561 65.3575 14.4595C65.2585 14.3628 65.2029 14.2317 65.2029 14.0951V12.5215C65.2029 12.3848 65.2585 12.2537 65.3575 12.1571C65.4564 12.0605 65.5907 12.0062 65.7306 12.0062H70.6492V11.2823C70.6503 11.1463 70.7064 11.0162 70.8052 10.9205C70.9041 10.8247 71.0377 10.7709 71.1769 10.7709H74.9112C75.0501 10.7709 75.1833 10.8248 75.2815 10.9207C75.3797 11.0166 75.4349 11.1467 75.4349 11.2823V11.9786H80.3575C80.4279 11.9786 80.4975 11.9923 80.5623 12.0189C80.6271 12.0456 80.6859 12.0846 80.735 12.1337C80.7842 12.1828 80.8228 12.241 80.8486 12.3049C80.8744 12.3688 80.8869 12.4371 80.8853 12.5058ZM66.2865 10.2752H63.5311C63.4743 10.2717 63.4188 10.2565 63.3685 10.2305C63.3181 10.2045 63.274 10.1684 63.2389 10.1245C63.2039 10.0806 63.1788 10.03 63.1653 9.97598C63.1518 9.92194 63.1502 9.86572 63.1605 9.81103L64.5825 4.36257C64.6031 4.28284 64.6504 4.21208 64.7167 4.16149C64.7831 4.11091 64.8649 4.08338 64.9491 4.08325H67.5917C67.6483 4.08316 67.7042 4.09548 67.7553 4.11928C67.8064 4.14309 67.8514 4.17778 67.887 4.22081C67.9226 4.26384 67.9478 4.3141 67.9608 4.36791C67.9738 4.42172 67.9744 4.4777 67.9623 4.53172L67.6884 5.74336H72.2686C72.369 5.74336 72.4654 5.78233 72.5364 5.85168C72.6074 5.92102 72.6473 6.01508 72.6473 6.11315V8.01716C72.6473 8.11524 72.6074 8.20929 72.5364 8.27864C72.4654 8.34799 72.369 8.38695 72.2686 8.38695H71.6201V9.90545C71.6201 10.0035 71.5802 10.0976 71.5091 10.1669C71.4381 10.2363 71.3418 10.2752 71.2414 10.2752H68.2806C68.1801 10.2752 68.0838 10.2363 68.0128 10.1669C67.9418 10.0976 67.9019 10.0035 67.9019 9.90545V8.38695H67.0358L66.633 9.99199C66.614 10.0693 66.5701 10.1386 66.5077 10.1896C66.4453 10.2406 66.3678 10.2706 66.2865 10.2752ZM70.335 24.4766V25.8024C70.334 26.0295 70.2411 26.247 70.0766 26.4076C69.9122 26.5682 69.6894 26.6589 69.4568 26.66H66.3832C66.1503 26.66 65.9269 26.5696 65.7622 26.4088C65.5975 26.248 65.505 26.0298 65.505 25.8024V24.4766C65.505 24.2492 65.5975 24.0311 65.7622 23.8702C65.9269 23.7094 66.1503 23.6191 66.3832 23.6191H69.4407C69.5572 23.6175 69.6729 23.6385 69.7811 23.6808C69.8893 23.7232 69.9878 23.7861 70.0709 23.8658C70.1541 23.9455 70.2202 24.0406 70.2656 24.1454C70.3109 24.2503 70.3345 24.3628 70.335 24.4766ZM75.9384 10.2752H73.1871C73.1291 10.2753 73.0718 10.2624 73.0198 10.2374C72.9677 10.2124 72.9222 10.1761 72.8868 10.1313C72.8513 10.0864 72.8269 10.0342 72.8155 9.97868C72.804 9.92316 72.8057 9.86579 72.8205 9.81103L74.2385 4.36257C74.2628 4.28411 74.3115 4.21501 74.378 4.16494C74.4444 4.11486 74.5252 4.0863 74.6091 4.08325H77.2356C77.2927 4.08348 77.349 4.09634 77.4004 4.12085C77.4517 4.14537 77.4967 4.1809 77.5319 4.2248C77.5672 4.26869 77.5918 4.31982 77.604 4.37433C77.6162 4.42885 77.6155 4.48534 77.6022 4.53959L77.3121 5.74336H83.0686C83.1679 5.74805 83.2619 5.7884 83.3325 5.85666C83.4032 5.92492 83.4455 6.01627 83.4513 6.11315V8.01716C83.4455 8.11404 83.4032 8.2054 83.3325 8.27366C83.2619 8.34192 83.1679 8.38227 83.0686 8.38695H82.0656V9.90545C82.0656 10.0035 82.0257 10.0976 81.9547 10.1669C81.8837 10.2363 81.7873 10.2752 81.6869 10.2752H78.7261C78.6256 10.2752 78.5293 10.2363 78.4583 10.1669C78.3873 10.0976 78.3474 10.0035 78.3474 9.90545V8.38695H76.6756L76.3091 9.98412C76.2907 10.0667 76.2438 10.1406 76.1764 10.1936C76.109 10.2466 76.025 10.2754 75.9384 10.2752Z" fill="white"/>
<path d="M89.9007 16.7586L87.7254 15.1575C87.5571 15.0356 87.444 14.8545 87.4101 14.6525C87.3763 14.4505 87.4243 14.2436 87.5442 14.0757L93.9895 4.93326C94.049 4.84717 94.1254 4.77343 94.2142 4.7163C94.303 4.65917 94.4025 4.61977 94.507 4.60039C94.6115 4.58101 94.7189 4.58202 94.8229 4.60337C94.927 4.62471 95.0258 4.66597 95.1134 4.72477L97.2364 6.12524C97.3252 6.18272 97.4014 6.25683 97.4607 6.34328C97.52 6.42972 97.5611 6.52679 97.5817 6.62886C97.6023 6.73093 97.602 6.83599 97.5807 6.93794C97.5595 7.03989 97.5178 7.13671 97.4579 7.2228L91.0891 16.5619C91.0288 16.6563 90.9487 16.7371 90.8541 16.799C90.7595 16.8609 90.6525 16.9025 90.5402 16.9211C90.4279 16.9397 90.3128 16.9349 90.2026 16.9068C90.0924 16.8788 89.9895 16.8283 89.9007 16.7586ZM107.07 27.1402L89.655 27.2503C89.1958 27.2503 89.1958 26.8019 89.3086 26.5186L95.2061 13.5367C95.257 13.4244 95.3303 13.323 95.4217 13.2386C95.5131 13.1541 95.6207 13.0882 95.7384 13.0446C95.856 13.0011 95.9814 12.9808 96.1071 12.9849C96.2329 12.989 96.3566 13.0174 96.471 13.0686L98.888 14.1307C99.002 14.1805 99.1049 14.2518 99.1907 14.3405C99.2766 14.4291 99.3436 14.5334 99.3882 14.6474C99.4327 14.7614 99.4538 14.8828 99.4502 15.0048C99.4466 15.1267 99.4185 15.2468 99.3674 15.3581L95.6935 23.3872L101.285 23.2456L99.8427 20.185C99.7399 19.9708 99.7244 19.7265 99.7992 19.5016C99.874 19.2766 100.034 19.0878 100.246 18.9734L102.36 17.8601C102.476 17.8003 102.602 17.7641 102.733 17.7537C102.863 17.7434 102.994 17.7592 103.118 17.8001C103.241 17.841 103.355 17.9061 103.452 17.9915C103.549 18.0769 103.627 18.1808 103.682 18.2968L107.472 26.3495C107.601 26.6603 107.658 27.1402 107.07 27.1402ZM105.237 16.5619L98.8517 7.2228C98.7919 7.13671 98.7502 7.03989 98.7289 6.93794C98.7077 6.83599 98.7074 6.73093 98.728 6.62886C98.7486 6.52679 98.7897 6.42972 98.849 6.34328C98.9082 6.25683 98.9845 6.18272 99.0733 6.12524L100.33 5.29519L101.192 4.72477C101.28 4.66536 101.379 4.62359 101.484 4.6019C101.588 4.58022 101.696 4.57904 101.801 4.59845C101.906 4.61785 102.006 4.65744 102.095 4.71492C102.184 4.7724 102.261 4.84662 102.32 4.93326L108.766 14.0757C108.885 14.2436 108.933 14.4505 108.9 14.6525C108.866 14.8545 108.753 15.0356 108.584 15.1575L106.405 16.7586C106.316 16.8276 106.214 16.8776 106.104 16.9052C105.994 16.9329 105.879 16.9375 105.768 16.919C105.656 16.9004 105.549 16.859 105.455 16.7975C105.361 16.7359 105.281 16.6557 105.221 16.5619H105.237Z" fill="white"/>
<path d="M132.15 21.8135H125.33V20.7985H130.192C130.356 20.7991 130.518 20.768 130.67 20.7071C130.821 20.6463 130.959 20.5568 131.075 20.4439C131.191 20.331 131.283 20.1968 131.346 20.049C131.409 19.9013 131.441 19.7429 131.441 19.583V11.3808C131.441 11.0573 131.309 10.7471 131.075 10.5184C130.841 10.2897 130.523 10.1612 130.192 10.1612H125.358V9.15022H131.642C131.868 9.14919 132.083 9.0614 132.242 8.90596C132.401 8.75052 132.491 8.54 132.492 8.32017V6.43189C132.492 6.21174 132.403 6.00061 132.243 5.84495C132.084 5.68928 131.868 5.60184 131.642 5.60184H125.33V4.89767C125.33 4.78885 125.308 4.6811 125.265 4.58062C125.222 4.48013 125.16 4.38888 125.081 4.31212C125.002 4.23535 124.908 4.17458 124.805 4.1333C124.702 4.09201 124.591 4.07102 124.48 4.07154H121.257C121.033 4.07154 120.817 4.15845 120.658 4.31327C120.498 4.46809 120.408 4.6782 120.407 4.89767V5.59004H114.127C114.016 5.59004 113.905 5.61153 113.803 5.65329C113.7 5.69506 113.606 5.75626 113.528 5.83339C113.449 5.91052 113.387 6.00205 113.344 6.10274C113.302 6.20342 113.281 6.31127 113.281 6.42009V8.30837C113.281 8.52784 113.37 8.73837 113.529 8.89392C113.687 9.04947 113.902 9.13738 114.127 9.13842H120.428V10.1494H115.565C115.234 10.1494 114.917 10.2779 114.682 10.5066C114.448 10.7353 114.317 11.0455 114.317 11.369V19.5751C114.317 19.7351 114.349 19.8934 114.412 20.0412C114.474 20.1889 114.567 20.3231 114.683 20.436C114.799 20.549 114.936 20.6384 115.088 20.6993C115.239 20.7601 115.402 20.7912 115.565 20.7907H120.428V21.8135H113.608C113.496 21.8135 113.386 21.835 113.283 21.8767C113.18 21.9185 113.087 21.9797 113.008 22.0568C112.929 22.134 112.867 22.2255 112.825 22.3262C112.783 22.4269 112.761 22.5347 112.762 22.6435V24.6459C112.762 24.865 112.851 25.0751 113.009 25.2301C113.168 25.385 113.383 25.472 113.608 25.472H120.428V27.0652C120.428 27.2854 120.517 27.4965 120.677 27.6522C120.836 27.8079 121.052 27.8953 121.278 27.8953H124.5C124.612 27.8958 124.723 27.8747 124.826 27.8332C124.929 27.7916 125.023 27.7305 125.102 27.6534C125.181 27.5762 125.244 27.4844 125.287 27.3835C125.329 27.2826 125.351 27.1744 125.35 27.0652V25.472H132.17C132.395 25.472 132.61 25.3851 132.77 25.2303C132.929 25.0755 133.019 24.8654 133.02 24.6459V22.6435C133.02 22.5329 132.998 22.4233 132.954 22.3213C132.91 22.2193 132.845 22.1269 132.764 22.0495C132.683 21.9722 132.587 21.9115 132.481 21.8709C132.376 21.8304 132.263 21.8109 132.15 21.8135Z" fill="white"/>
<path d="M125.656 18.3635C125.581 18.3644 125.506 18.3468 125.439 18.3124L123.662 17.3564C123.55 17.4407 123.421 17.5016 123.283 17.5353C123.146 17.5691 123.003 17.575 122.863 17.5527C122.723 17.5304 122.589 17.4804 122.469 17.4058C122.35 17.3311 122.247 17.2333 122.168 17.1185C122.089 17.0037 122.034 16.8743 122.008 16.7382C121.982 16.6021 121.985 16.4622 122.016 16.3271C122.047 16.1921 122.107 16.0647 122.19 15.9528C122.274 15.8409 122.38 15.7469 122.502 15.6766V12.0732C122.502 11.9563 122.55 11.8442 122.634 11.7616C122.719 11.679 122.834 11.6326 122.953 11.6326C123.073 11.6326 123.188 11.679 123.272 11.7616C123.357 11.8442 123.404 11.9563 123.404 12.0732V15.6137C123.602 15.6875 123.772 15.818 123.892 15.9879C124.012 16.1578 124.076 16.3592 124.077 16.5657L125.874 17.5452C125.962 17.5913 126.033 17.6651 126.073 17.7549C126.114 17.8446 126.122 17.9451 126.097 18.0401C126.072 18.135 126.015 18.219 125.935 18.2783C125.855 18.3377 125.757 18.3691 125.656 18.3674V18.3635Z" fill="#1E373F"/>
</g>
<defs>
<clipPath id="clip0_15_1472">
<rect width="133" height="30" fill="white"/>
</clipPath>
</defs>
</svg>
