<svg width="39" height="57" viewBox="0 0 39 57" fill="none" xmlns="http://www.w3.org/2000/svg">
<path d="M13.8819 21.621C13.8828 21.211 13.7913 20.806 13.6143 20.436C13.4372 20.066 13.1791 19.7404 12.859 19.4833C13.157 19.2502 13.3968 18.9513 13.5594 18.61C13.7221 18.2687 13.8031 17.8944 13.7962 17.5166C13.7962 15.9454 12.859 14.7537 11.2362 14.7537H7.96924V24.3733H11.429C12.7625 24.3786 13.8819 23.3526 13.8819 21.621ZM11.0701 16.6562C11.2033 16.6499 11.3363 16.6717 11.4604 16.7202C11.5846 16.7687 11.6971 16.8428 11.7906 16.9376C11.8841 17.0324 11.9565 17.1458 12.0031 17.2705C12.0496 17.3951 12.0694 17.5282 12.061 17.6609C12.0529 17.8033 12.0163 17.9427 11.9534 18.0707C11.8905 18.1988 11.8025 18.313 11.6947 18.4066C11.5869 18.5002 11.4615 18.5714 11.3257 18.6159C11.1899 18.6604 11.0466 18.6773 10.9041 18.6656H9.96689C9.96689 17.9923 9.96689 17.3296 9.96689 16.6562H11.0701ZM9.95617 22.4707V20.4934H10.9845C11.2473 20.5054 11.4945 20.6211 11.6717 20.8151C11.849 21.009 11.9418 21.2653 11.9298 21.5275C11.9177 21.7897 11.8017 22.0364 11.6073 22.2133C11.413 22.3902 11.1562 22.4828 10.8934 22.4707H9.95617Z" fill="currentColor"/>
<path d="M19.2269 24.5232C21.2781 24.5232 22.6438 22.8451 22.6438 19.7134V14.7593H20.6033V19.5691C20.6033 21.5625 20.0678 22.3855 19.2269 22.3855C18.2629 22.3855 17.7808 21.7816 17.7808 19.6225V14.7593H15.7725C15.7725 16.3358 15.7725 18.2758 15.7725 19.8577C15.7243 22.8558 17.1061 24.5232 19.2269 24.5232Z" fill="currentColor"/>
<path d="M27.4372 20.3547C27.7157 20.4242 28.8296 20.5204 28.8296 21.3594C28.8296 22.1985 28.1548 22.471 27.4961 22.471C27.0676 22.471 26.2535 21.9901 25.2627 21.2632L24.6683 23.1604C25.9215 24.1491 26.4999 24.5072 27.63 24.5072C28.8457 24.5072 30.7309 23.914 30.7309 21.3594C30.7309 18.8049 28.4708 18.4148 27.2979 18.2384C26.9016 18.1422 26.4892 17.9231 26.4892 17.4688C26.4892 17.1108 26.682 16.5176 27.6192 16.5176C28.5303 16.5876 29.3944 16.9493 30.0828 17.549L30.6184 15.748C29.5205 14.8555 28.6476 14.4975 27.646 14.4975C27.2406 14.4733 26.8346 14.5362 26.4555 14.6818C26.0764 14.8274 25.733 15.0523 25.4483 15.3414C25.1636 15.6305 24.9443 15.9772 24.8052 16.358C24.666 16.7388 24.6102 17.1449 24.6415 17.549C24.6147 19.5691 26.2696 20.189 27.4372 20.3547Z" fill="currentColor"/>
<path d="M39 19.4674C39.0017 15.7803 37.9536 12.1686 35.9777 9.05299C34.0018 5.93736 31.1794 3.44603 27.8394 1.8692C24.4993 0.292372 20.7791 -0.305068 17.1119 0.146483C13.4447 0.598034 9.98155 2.07998 7.12583 4.41972C4.2701 6.75945 2.13933 9.86066 0.981706 13.3621C-0.17592 16.8636 -0.312738 20.6212 0.587157 24.1973C1.48705 27.7734 3.38661 31.0208 6.06463 33.5611C8.74265 36.1015 12.0889 37.8304 15.7135 38.5463V54.0446C15.715 54.828 16.0275 55.5789 16.5826 56.1328C17.1377 56.6867 17.8902 56.9986 18.6752 57H19.5321C20.3181 57 21.072 56.6888 21.6283 56.1347C22.1845 55.5806 22.4978 54.8289 22.4992 54.0446V38.68C27.0906 37.9602 31.2743 35.6303 34.2987 32.1089C37.3231 28.5874 38.99 24.1052 39 19.4674ZM19.5 1.61236C22.3659 1.6094 25.1907 2.29382 27.7362 3.608C30.2816 4.92219 32.4732 6.82764 34.1264 9.16377H4.93256C6.57965 6.83543 8.76184 4.93475 11.2963 3.62092C13.8309 2.30709 16.6439 1.61836 19.5 1.61236ZM3.88823 10.7617H35.1171C36.6094 13.4187 37.393 16.4136 37.393 19.4594C37.393 22.5053 36.6094 25.5001 35.1171 28.1572H3.88823C2.39603 25.4982 1.6124 22.5016 1.6124 19.4541C1.6124 16.4065 2.39603 13.41 3.88823 10.751V10.7617ZM20.8925 54.05C20.8911 54.4091 20.7471 54.7529 20.4921 55.0064C20.2372 55.2598 19.892 55.4021 19.5321 55.4021H18.6752C18.3159 55.4021 17.9712 55.2596 17.7171 55.006C17.463 54.7525 17.3202 54.4086 17.3202 54.05V38.8082C18.044 38.8896 18.7717 38.9306 19.5 38.9311C19.9713 38.9311 20.4319 38.9311 20.8925 38.8777V54.05ZM19.5 37.3118C16.6394 37.3101 13.821 36.6234 11.2814 35.3094C8.74193 33.9954 6.55546 32.0925 4.90576 29.7604H34.1264C32.4738 32.0975 30.2824 34.004 27.7369 35.3191C25.1915 36.6343 22.3664 37.3195 19.5 37.3172V37.3118Z" fill="currentColor"/>
</svg>
